HIERARCHY
ROOT hip
{
  OFFSET 0 0 0
  CHANNELS 6 Xposition Yposition Zposition Zrotation Yrotation Xrotation
  JOINT abdomen
  {
    OFFSET 0 20.6881 -0.73152
    CHANNELS 3 Zrotation Xrotation Yrotation
    JOINT chest
    {
      OFFSET 0 11.7043 -0.48768
      CHANNELS 3 Zrotation Xrotation Yrotation
      JOINT neck
      {
        OFFSET 0 22.1894 -2.19456
        CHANNELS 3 Zrotation Xrotation Yrotation
        JOINT head
        {
          OFFSET -0.24384 7.07133 1.2192
          CHANNELS 3 Zrotation Xrotation Yrotation
          JOINT leftEye
          {
            OFFSET 4.14528 8.04674 8.04672
            CHANNELS 3 Zrotation Xrotation Yrotation
            End Site
            {
              OFFSET 1 0 0
            }
          }
          JOINT rightEye
          {
            OFFSET -3.6576 8.04674 8.04672
            CHANNELS 3 Zrotation Xrotation Yrotation
            End Site
            {
              OFFSET 1 0 0
            }
          }
        }
      }
      JOINT rCollar
      {
        OFFSET -2.68224 19.2634 -4.8768
        CHANNELS 3 Zrotation Xrotation Yrotation
        JOINT rShldr
        {
          OFFSET -8.77824 -1.95073 1.46304
          CHANNELS 3 Zrotation Xrotation Yrotation
          JOINT rForeArm
          {
            OFFSET -28.1742 -1.7115 0.48768
            CHANNELS 3 Zrotation Xrotation Yrotation
            JOINT rHand
            {
              OFFSET -22.5879 0.773209 7.07136
              CHANNELS 3 Zrotation Xrotation Yrotation
              JOINT rThumb1
              {
                OFFSET -1.2192 -0.487915 3.41376
                CHANNELS 3 Zrotation Xrotation Yrotation
                JOINT rThumb2
                {
                  OFFSET -3.37035 -0.52449 3.41376
                  CHANNELS 3 Zrotation Xrotation Yrotation
                  End Site
                  {
                    OFFSET -1.78271 -1.18214 1.43049
                  }
                }
              }
              JOINT rIndex1
              {
                OFFSET -7.75947 0.938293 5.60832
                CHANNELS 3 Zrotation Xrotation Yrotation
                JOINT rIndex2
                {
                  OFFSET -2.54057 -0.884171 1.56538
                  CHANNELS 3 Zrotation Xrotation Yrotation
                  End Site
                  {
                    OFFSET -1.62519 -0.234802 1.16502
                  }
                }
              }
              JOINT rMid1
              {
                OFFSET -8.24714 1.18213 3.41376
                CHANNELS 3 Zrotation Xrotation Yrotation
                JOINT rMid2
                {
                  OFFSET -3.10165 -0.590103 1.0647
                  CHANNELS 3 Zrotation Xrotation Yrotation
                  End Site
                  {
                    OFFSET -2.48547 -0.328903 0.83742
                  }
                }
              }
              JOINT rRing1
              {
                OFFSET -8.82822 0.546677 1.51678
                CHANNELS 3 Zrotation Xrotation Yrotation
                JOINT rRing2
                {
                  OFFSET -2.60934 -0.819778 -0.0198488
                  CHANNELS 3 Zrotation Xrotation Yrotation
                  End Site
                  {
                    OFFSET -2.33842 -0.294052 0.168128
                  }
                }
              }
              JOINT rPinky1
              {
                OFFSET -8.27202 -0.0477905 -0.4584
                CHANNELS 3 Zrotation Xrotation Yrotation
                JOINT rPinky2
                {
                  OFFSET -1.82734 -0.647385 -0.700984
                  CHANNELS 3 Zrotation Xrotation Yrotation
                  End Site
                  {
                    OFFSET -1.69225 -0.51767 -0.607171
                  }
                }
              }
            }
          }
        }
      }
      JOINT lCollar
      {
        OFFSET 2.68224 19.2634 -4.8768
        CHANNELS 3 Zrotation Xrotation Yrotation
        JOINT lShldr
        {
          OFFSET 8.77824 -1.95073 1.46304
          CHANNELS 3 Zrotation Xrotation Yrotation
          JOINT lForeArm
          {
            OFFSET 28.1742 -1.7115 0.48768
            CHANNELS 3 Zrotation Xrotation Yrotation
            JOINT lHand
            {
              OFFSET 22.5879 0.773209 7.07136
              CHANNELS 3 Zrotation Xrotation Yrotation
              JOINT lThumb1
              {
                OFFSET 1.2192 -0.487915 3.41376
                CHANNELS 3 Zrotation Xrotation Yrotation
                JOINT lThumb2
                {
                  OFFSET 3.37035 -0.52449 3.41376
                  CHANNELS 3 Zrotation Xrotation Yrotation
                  End Site
                  {
                    OFFSET 1.78271 -1.18214 1.43049
                  }
                }
              }
              JOINT lIndex1
              {
                OFFSET 7.75947 0.938293 5.60832
                CHANNELS 3 Zrotation Xrotation Yrotation
                JOINT lIndex2
                {
                  OFFSET 2.54057 -0.884171 1.56538
                  CHANNELS 3 Zrotation Xrotation Yrotation
                  End Site
                  {
                    OFFSET 1.62519 -0.234802 1.16502
                  }
                }
              }
              JOINT lMid1
              {
                OFFSET 8.24714 1.18213 3.41376
                CHANNELS 3 Zrotation Xrotation Yrotation
                JOINT lMid2
                {
                  OFFSET 3.10165 -0.590103 1.0647
                  CHANNELS 3 Zrotation Xrotation Yrotation
                  End Site
                  {
                    OFFSET 2.48547 -0.328903 0.83742
                  }
                }
              }
              JOINT lRing1
              {
                OFFSET 8.82822 0.546677 1.51678
                CHANNELS 3 Zrotation Xrotation Yrotation
                JOINT lRing2
                {
                  OFFSET 2.60934 -0.819778 -0.0198488
                  CHANNELS 3 Zrotation Xrotation Yrotation
                  End Site
                  {
                    OFFSET 2.33842 -0.294052 0.168128
                  }
                }
              }
              JOINT lPinky1
              {
                OFFSET 8.27202 -0.0477905 -0.4584
                CHANNELS 3 Zrotation Xrotation Yrotation
                JOINT lPinky2
                {
                  OFFSET 1.82734 -0.647385 -0.700984
                  CHANNELS 3 Zrotation Xrotation Yrotation
                  End Site
                  {
                    OFFSET 1.69225 -0.51767 -0.607171
                  }
                }
              }
            }
          }
        }
      }
    }
  }
  JOINT rButtock
  {
    OFFSET -8.77824 4.35084 1.2192
    CHANNELS 3 Zrotation Xrotation Yrotation
    JOINT rThigh
    {
      OFFSET 0 -1.70687 -2.19456
      CHANNELS 3 Zrotation Xrotation Yrotation
      JOINT rShin
      {
        OFFSET 0 -36.8199 0.73152
        CHANNELS 3 Zrotation Xrotation Yrotation
        JOINT rFoot
        {
          OFFSET 0.73152 -45.1104 -5.12064
          CHANNELS 3 Zrotation Xrotation Yrotation
          End Site
          {
            OFFSET -1.1221 -3.69964 12.103
          }
        }
      }
    }
  }
  JOINT lButtock
  {
    OFFSET 8.77824 4.35084 1.2192
    CHANNELS 3 Zrotation Xrotation Yrotation
    JOINT lThigh
    {
      OFFSET 0 -1.70687 -2.19456
      CHANNELS 3 Zrotation Xrotation Yrotation
      JOINT lShin
      {
        OFFSET 0 -36.8199 0.73152
        CHANNELS 3 Zrotation Xrotation Yrotation
        JOINT lFoot
        {
          OFFSET -0.73152 -45.1104 -5.12064
          CHANNELS 3 Zrotation Xrotation Yrotation
          End Site
          {
            OFFSET 1.1221 -3.69964 12.103
          }
        }
      }
    }
  }
}
MOTION
Frames:	4
Frame Time:	0.03333
-5.09220003241353 60.266101360321045 -3.4650000281544635 -20.784999889684578 -24.56240015166699 12.75679980811982 17.83259939452779 6.828260068459046 8.92617017438821 -1.6174999994764436 -7.598099654434468 2.5252400375773663 -2.4530199651711784 14.550399800202353 2.3437100445811176 7.147979942846873 -22.472700360007 6.077279915442498 -0.0 0.0 0.0 -0.0 0.0 0.0 1.3328700627876034e-14 3.657400079759412e-14 1.6553800473391595e-13 75.46660304511998 37.59280111623824 -17.188099329350802 -19.683000093521795 -12.618299793451241 37.91599883757407 -0.245304990060965 13.964400305266524 2.002789903339805 -4.4256101444142043e-10 3.0922299325167715e-10 4.2412999823934075e-10 -7.620910175557987e-10 5.301059808333714e-10 7.416950149145773e-10 -4.425569890519017e-10 3.092219993283392e-10 4.2412701646932687e-10 7.730910121524428 5.474879855648998 0.41731399283890674 -4.425659840581102e-10 3.092219993283392e-10 4.241329800093546e-10 2.90554006136521 0.9651829962377875 0.10290200252939893 -4.4256101444142043e-10 3.0922299325167715e-10 4.2413198608601666e-10 10.278599710243157 0.7318009818271524 0.025912300303053633 -4.4256101444142043e-10 3.0922299325167715e-10 4.241399871688872e-10 2.221669932038622 -0.7334870246959406 -0.20891999872313852 1.3110600457916056e-14 3.6577501125755746e-14 1.6518999810424517e-13 -73.01580139732518 21.563800256964235 -7.326639762287836 13.726100127766657 -6.735509941511681 -25.004600258911953 0.11751700652763951 9.72904012830299 -1.3807599865933953 -2.6475899286293454e-09 -1.3367499598862765e-09 1.1480799531435297e-09 -4.56580988930412e-09 -2.265840076078003e-09 2.0128599494224e-09 -2.6476000666473927e-09 -1.3367499598862765e-09 1.1481000303949563e-09 -7.730910121524428 5.474879855648998 -0.41731399283890674 -2.6475899286293454e-09 -1.3367599985119898e-09 1.1480700139101502e-09 -2.90554006136521 0.9651829962377875 -0.10290200252939893 -2.6475899286293454e-09 -1.3367499598862765e-09 1.1480799531435297e-09 -10.278599710243157 0.7318009818271524 -0.025912300303053633 -2.6475899286293454e-09 -1.336740020652897e-09 1.1480799531435297e-09 -2.221669932038622 -0.7334870246959406 0.20891999872313852 -2.0321699793705798e-16 0.0 -3.882510030490358e-19 1.2881000394874156 9.193490118124169 -7.102099854644605 0.007097230223251077 34.38929896152969 2.1355299341039484 -12.911500177726024 -20.838900327519735 -31.53220009586209 2.0321699793705798e-16 0.0 3.882510030490358e-19 77.72439720734856 -55.78270136662774 67.90860257752901 3.0933800819374926 74.40629813874554 -3.0804300432711487 0.47323899479358933 -1.973119988472093 -0.9206750290067515
-5.119700032264518 60.20150184631348 -3.3650000234047184 -20.850199167954226 -24.58790066293323 12.761900251882528 17.94419956292392 6.761539792438599 8.885420412026267 -1.6686500055101998 -7.4954897225333665 2.5102099928653416 -2.4037900960678424 14.52410015680322 2.3269500410183754 7.118750148293803 -22.434700602559634 6.033520174090695 -0.0 0.0 0.0 -0.0 0.0 0.0 4.68711988461405e-14 7.496649790548759e-14 2.418030091252623e-13 75.48559780120178 37.53140113069441 -17.110199314319516 -19.67340026264334 -12.6064997878864 37.89289913780109 -0.2451310070001148 13.959600389827298 2.00205992687226 -1.438859978264988e-09 1.5780800129206797e-09 -3.737929992693253e-10 -2.4929000735723507e-09 2.72589001648562e-09 -6.268420048122483e-10 -1.438859978264988e-09 1.5780800129206797e-09 -3.737969998107606e-10 7.730910121524428 5.474879855648998 0.41731399283890674 -1.4388700168907016e-09 1.5780800129206797e-09 -3.737929992693253e-10 2.90554006136521 0.9651829962377875 0.10290200252939893 -1.438859978264988e-09 1.5780899521540592e-09 -3.737910114226494e-10 10.278599710243157 0.7318009818271524 0.025912300303053633 -1.4388700168907016e-09 1.5780899521540592e-09 -3.737830103397788e-10 2.221669932038622 -0.7334870246959406 -0.20891999872313852 4.6824699686073095e-14 7.496640084266162e-14 2.4159798817110207e-13 -72.98649988578582 21.629600591880845 -7.411340084411517 13.652499716817893 -6.677499864230293 -24.857399437014422 0.12769100018319662 10.133899591355497 -1.4394300309033354 -3.62064008135092e-09 -4.001909868930029e-09 -2.2170901241978708e-10 -6.260669831502427e-09 -6.879030092117882e-09 -3.4848100210239996e-10 -3.620659959817679e-09 -4.001909868930029e-09 -2.2168900971261067e-10 -7.730910121524428 5.474879855648998 -0.41731399283890674 -3.6206500205842997e-09 -4.001919808163409e-09 -2.2171698865457418e-10 -2.90554006136521 0.9651829962377875 -0.10290200252939893 -3.6206500205842997e-09 -4.001909868930029e-09 -2.217140068845603e-10 -10.278599710243157 0.7318009818271524 -0.025912300303053633 -3.62064008135092e-09 -4.001909868930029e-09 -2.2172200796743086e-10 -2.221669932038622 -0.7334870246959406 0.20891999872313852 -2.0321699793705798e-16 0.0 -3.882510030490358e-19 1.3248799678376997 9.323829764281877 -7.203640008166953 0.009182900023207877 34.40379945313763 2.1412500040904225 -12.956500025299007 -20.87659955664362 -31.592599458692515 2.0321699793705798e-16 0.0 3.882510030490358e-19 77.8638969909569 -55.79580166945582 68.0344010016623 3.137670016723617 74.57139747136308 -3.1229200097675633 0.46681899049974757 -2.109589942853298 -0.9743419597496572
-5.166100033420662 60.135698318481445 -3.30400002458191 -20.838599799196253 -24.35000005149981 12.68080029322509 18.116600367764214 6.706409920552841 8.809530180158257 -1.729809973937727 -7.393420229350342 2.4859299510264155 -2.354549981680751 14.485200521932704 2.3114100799961275 7.069969791015219 -22.389699901213007 5.988890010506539 -0.0 0.0 0.0 -0.0 0.0 0.0 1.4110200151264805e-13 8.865950261815784e-14 5.088889916912276e-14 75.49630070763119 37.49840107171949 -17.03110060108889 -19.668600347204116 -12.6006002119908 37.88140051433337 -0.2455010111540591 13.969900315095677 2.0035999210866864 -2.0387500620988485e-09 2.396149985578242e-09 -1.292380029371855e-09 -3.538489932052734e-09 4.143669974068204e-09 -2.209310089877676e-09 -2.0387500620988485e-09 2.396149985578242e-09 -1.292380029371855e-09 7.730910121524428 5.474879855648998 0.41731399283890674 -2.0387500620988485e-09 2.396149985578242e-09 -1.292380029371855e-09 2.90554006136521 0.9651829962377875 0.10290200252939893 -2.0387500620988485e-09 2.396149985578242e-09 -1.2923699907461414e-09 10.278599710243157 0.7318009818271524 0.025912300303053633 -2.038760001332228e-09 2.3961599248116213e-09 -1.2923699907461414e-09 2.221669932038622 -0.7334870246959406 -0.20891999872313852 1.4118099852013633e-13 8.865640267415335e-14 5.083919996901158e-14 -72.95100339266926 21.706399238908467 -7.497409859463787 13.592200245504081 -6.630030049498704 -24.737200060453247 0.1356390058397775 10.442500344661367 -1.4842299887213897 -2.880680059015081e-09 -5.492210051373999e-09 -2.0814100469026484e-09 -4.998279848576094e-09 -9.484449841364373e-09 -3.5727301934760294e-09 -2.8806899982484607e-09 -5.492210051373999e-09 -2.0813899696512214e-09 -7.730910121524428 5.474879855648998 -0.41731399283890674 -2.880680059015081e-09 -5.4922199906073785e-09 -2.081419986136028e-09 -2.90554006136521 0.9651829962377875 -0.10290200252939893 -2.880680059015081e-09 -5.492210051373999e-09 -2.081419986136028e-09 -10.278599710243157 0.7318009818271524 -0.025912300303053633 -2.8806699209970337e-09 -5.492200112140619e-09 -2.081429925369407e-09 -2.221669932038622 -0.7334870246959406 0.20891999872313852 -2.0321699793705798e-16 0.0 -3.882510030490358e-19 1.4011299585759005 9.48275972853161 -7.334670357204478 0.011335900380589528 34.39279943347932 2.146529953762254 -12.990300070180462 -20.917000125584245 -31.631599838853287 2.0321699793705798e-16 0.0 3.882510030490358e-19 78.03659832412067 -55.83560118174949 68.12910157450453 3.18701002262732 74.75359959766234 -3.171779981438661 0.45954099705227586 -2.238120015767775 -1.0311200416595039
-5.2207000358976074 60.07050275802612 -3.2320000234904 -20.914300493314798 -24.22619945769874 12.708400233887465 18.317500136916383 6.641319925309912 8.704380271659556 -1.718500034445832 -7.360980245887367 2.4567599206285835 -2.3462899350966784 14.468700492445246 2.3094099017863714 6.998479908519988 -22.326899726889323 5.968069886369048 -0.0 0.0 0.0 -0.0 0.0 0.0 2.015370053504496e-13 4.051059982135315e-15 -6.546099947005436e-13 75.49640316046874 37.52019962045559 -17.053500206471945 -19.675399800522865 -12.608899745606012 37.89759830795006 -0.24755300275197192 14.026800059750116 2.0121000915087675 -6.175399756846393e-10 8.919219553994761e-10 -1.3135500001163437e-09 -1.0794899993374295e-09 1.5474300013787536e-09 -2.266270047314003e-09 -6.175399756846393e-10 8.919250365618238e-10 -1.313560038742057e-09 7.730910121524428 5.474879855648998 0.41731399283890674 -6.17544001074158e-10 8.919240426384858e-10 -1.3135500001163437e-09 2.90554006136521 0.9651829962377875 0.10290200252939893 -6.175369939146254e-10 8.919260304851616e-10 -1.3135500001163437e-09 10.278599710243157 0.7318009818271524 0.025912300303053633 -6.17544994997496e-10 8.919290122551756e-10 -1.3135399614906304e-09 2.221669932038622 -0.7334870246959406 -0.20891999872313852 2.015180053022655e-13 4.048849907086123e-15 -6.546599820559194e-13 -73.07620076015559 21.705200540709132 -7.409729867314686 13.597700255333233 -6.634359962545669 -24.74830082540181 0.14218699613927765 10.68740019244676 -1.519870022532222 1.5412800013328087e-09 -1.4019200222711329e-09 -2.266509980407786e-09 2.6415999502408118e-09 -2.4685600837337807e-09 -3.935200119902343e-09 1.5412699627070954e-09 -1.4019200222711329e-09 -2.2665000411744064e-09 -7.730910121524428 5.474879855648998 -0.41731399283890674 1.5412699627070954e-09 -1.4019299615045125e-09 -2.2665199196411655e-09 -2.90554006136521 0.9651829962377875 -0.10290200252939893 1.5412699627070954e-09 -1.4019200222711329e-09 -2.266509980407786e-09 -10.278599710243157 0.7318009818271524 -0.025912300303053633 1.5412800013328087e-09 -1.4019200222711329e-09 -2.2665199196411655e-09 -2.221669932038622 -0.7334870246959406 0.20891999872313852 -2.0321699793705798e-16 0.0 -3.882510030490358e-19 1.5200400302095318 9.590279712672304 -7.4331702227725245 0.011488399861807934 34.38249950821094 2.1527099943006465 -13.019900402496004 -20.96959941238251 -31.648200613631 2.0321699793705798e-16 0.0 3.882510030490358e-19 78.26299860453909 -55.93750077397691 68.1857989748048 3.2367500214842915 74.9366008560945 -3.22328003466738 0.4504200264676643 -2.3170099813418914 -1.0827899958438272
